# xmcd CD database file
#
# Track frame offsets:
#	150
#	13550
#	29034
#	54890
#	73699
#	91002
#	104873
#	125466
#	135513
#	153033
#	171338
#	187391
#	209941
#	228481
#	241969
#
# Disc length: 3299 seconds
#
# Revision: 0
# Processed by: cddbd v1.5.2PL0 Copyright (c) Steve Scherf et al.
# Submitted via: CDex 1.51
#
DISCID=d80ce10f
DTITLE=Cigar - Caledonia's Boudoir
DYEAR=2007
DGENRE=Blues
TTITLE0=Caledonia
TTITLE1=Damn Your Eyes
TTITLE2=I've Heard It Through The Grapevine
TTITLE3=Islands In The Stream
TTITLE4=The Girl From The North Country
TTITLE5=Vallet Parking Guy
TTITLE6=Use Me
TTITLE7=Blackbird
TTITLE8=Into The Mystic
TTITLE9=Saturday Night Fishfry
TTITLE10=Rocky Recoon
TTITLE11=Always On My Mind
TTITLE12=Nobody Knows You When You Down And Out
TTITLE13=Desperado
TTITLE14=Caledonia's Theme
EXTD=YEAR: 2007
EXTT0=
EXTT1=
EXTT2=
EXTT3=
EXTT4=
EXTT5=
EXTT6=
EXTT7=
EXTT8=
EXTT9=
EXTT10=
EXTT11=
EXTT12=
EXTT13=
EXTT14=
PLAYORDER=
